<svg width="777" height="625" viewBox="0 0 777 625" fill="none" xmlns="http://www.w3.org/2000/svg">
<path d="M161.235 176.994H615.765M161.235 312.5H498.577M161.235 448.025H615.765M134.053 33H82.7882C69.5836 33 56.9197 38.3674 47.5826 47.9216C38.2455 57.4757 33 70.4338 33 83.9454V541.055C33 554.566 38.2455 567.524 47.5826 577.078C56.9197 586.633 69.5836 592 82.7882 592H134.053M642.947 33H694.212C707.416 33 720.08 38.3674 729.417 47.9216C738.754 57.4757 744 70.4338 744 83.9454V541.055C744 554.566 738.754 567.524 729.417 577.078C720.08 586.633 707.416 592 694.212 592H642.947" stroke="white" stroke-width="65" stroke-linecap="round" stroke-linejoin="round"/>
</svg>
